<svg width="56" height="42" fill="none" xmlns="http://www.w3.org/2000/svg"><path fill-rule="evenodd" clip-rule="evenodd" d="M36.49 2.02c3.618 1.904 5.806 3.055 9.064 3.055 2.138-.044 7.557-.378 10.04-.53L56 4.52v18.354l-.895.198h-.001c-3.125.688-5.52 1.216-7.859 2.368 1.41 3.386-.704 6.758-3.938 7.416-.756 1.591-2.194 2.657-3.846 3-.714 1.512-2.137 2.658-3.882 3.024-.952 1.993-2.924 3.12-5.005 3.12a5.754 5.754 0 01-3.657-1.328c-2.86 1.386-6.169.18-7.438-2.496a5.416 5.416 0 01-3.988-2.985 5.477 5.477 0 01-4.009-3c-3.68-.619-5.653-4.646-3.812-7.985-2.702-.62-4.727-.808-6.932-1.014L0 23.123V4.667h7.397c2.44 0 4.261-.862 6.024-1.695l.012-.006c3.022-1.433 6.43-3.034 11.219.683l.42-.475v-.002C26.711 1.308 27.86 0 30.606 0c2.072 0 3.575.797 5.314 1.72l.562.296.008.004zM10.969 25.55c-.749.891-.64 2.16.24 2.823.885.66 2.205.476 2.954-.422l1.825-2.23c.747-.899.644-2.161-.243-2.826-.882-.668-2.202-.479-2.951.417l-1.825 2.238zm4.24 5.815c-.882-.668-1.01-1.904-.26-2.8l1.844-2.261c.749-.894 2.07-1.083 2.952-.423.882.665.991 1.932.24 2.824l-1.843 2.26c-.75.899-2.047 1.067-2.933.4zm3.759.165c-.754.899-.642 2.166.24 2.83.877.661 2.203.474 2.952-.424l1.822-2.235c.749-.896.64-2.159-.24-2.826-.885-.665-2.205-.471-2.954.425l-1.82 2.23zm9.013 3.157l-1.827 2.247c-.753.901-2.072 1.085-2.954.423-.882-.665-.989-1.928-.242-2.824l1.831-2.249c.752-.891 2.072-1.083 2.952-.415.887.658.994 1.925.24 2.818zm2.593 3.731c.443 0 .88-.135 1.239-.413.851-.667.947-1.89.2-2.746l-.289-.257a5.437 5.437 0 01-1.027 1.89l-1.059 1.305c.299.14.616.221.936.221zm12.83-9.443c-.858.663-2.155.502-2.893-.34l-5.824-4.996c-.483-.413-1.099.317-.62.723l5.677 4.875c.744.854.648 2.083-.206 2.741-.86.67-2.16.511-2.898-.34l-4.468-3.916c-.476-.417-1.106.304-.632.721l4.358 3.832c.745.851.635 2.053-.226 2.72-.85.658-2.126.54-2.872-.32l-.852-.758c.31-2.94-1.743-5.413-4.49-5.87-.76-1.596-2.274-2.7-3.994-2.987-.751-1.582-2.256-2.7-3.995-2.991-1.51-3.171-5.665-4.079-8.512-1.813a40.775 40.775 0 00-6.29-1.337V9.333h2.73c3.495 0 6.013-1.192 8.033-2.151 2.537-1.202 3.755-1.76 6.023-.107-1.494 1.484-3.02 2.79-4.59 3.707-1.374.8-1.988 2.329-1.568 3.892.55 2.04 2.945 4.102 6.456 4.102 3.455 0 5.571-1.559 7.394-2.901.616-.454 1.199-.883 1.788-1.22 3.484 3.351 9.17 8.503 12.763 11.728.621.845.518 1.965-.291 2.592zm1.613-7.679c2.114-1.066 4.188-1.659 6.316-2.16V9.473c-1.584.091-3.607.199-5.054.257-4.767.213-7.891-1.432-11.863-3.523l-.111-.059-1.582-.828c-2.275-1.171-2.775-.616-3.505.21l-.04.046c-2.557 2.896-5.407 6.123-8.575 8.345 2.224.812 5.09-1.08 6.933-2.565 2.564-2.074 4.902-1.852 7.217.46 2.03 2.03 7.732 7.196 10.264 9.48z" fill="#C86DD7"/></svg>