<svg width="50" height="46" fill="none" xmlns="http://www.w3.org/2000/svg"><path fill-rule="evenodd" clip-rule="evenodd" d="M20.833 0v12.546h8.334V0h-8.334zm12.5 12.546V8.364H50V46H0V8.364h16.667v4.181h-12.5v29.273h41.666V12.546h-12.5zm-4.166 24.248v.842H8.333v-.872c-.008-2.325.092-3.652 2.759-4.271l.186-.043c2.857-.661 5.59-1.294 4.234-3.807-4.11-7.604-1.172-11.916 3.238-11.916 4.327 0 7.335 4.15 3.242 11.916-1.33 2.518 1.361 3.142 4.301 3.823l.117.027c2.675.62 2.767 1.957 2.757 4.3zm12.5-20.067h-8.334v4.182h8.334v-4.182zm-8.334 8.364h8.334v4.182h-8.334V25.09zm8.334 8.364h-8.334v4.181h8.334v-4.181zM22.917 6.273c0 1.154.933 2.09 2.083 2.09 1.15 0 2.083-.936 2.083-2.09S26.15 4.182 25 4.182c-1.15 0-2.083.937-2.083 2.09z" fill="#C86DD7"/></svg>