<svg width="48" height="48" fill="none" xmlns="http://www.w3.org/2000/svg"><path fill-rule="evenodd" clip-rule="evenodd" d="M24 5.388V0h8v5.388c-2.878-.486-5.184-.476-8 0zm7.82 21.292l5.272-8.052-.908-.812-7.346 6.198c-1.35-.276-2.804.136-3.788 1.236a4 4 0 105.966 5.33c.984-1.1 1.23-2.59.804-3.9zM44.516 6.702l-2.814 2.814a24.105 24.105 0 013 2.656l2.642-2.642-2.828-2.828zM4 18h16v4H4v-4zm12 8H0v4h16v-4zM6 34h14v4H6v-4zm22 14c11.046 0 20-8.954 20-20S39.046 8 28 8c-5.58 0-10.6 2.31-14.222 6h6.56c2.276-1.262 4.878-2 7.662-2 8.822 0 16 7.178 16 16s-7.178 16-16 16c-2.784 0-5.386-.738-7.662-2h-6.56C17.4 45.69 22.42 48 28 48z" fill="#C86DD7"/></svg>