<svg width="48" height="48" fill="none" xmlns="http://www.w3.org/2000/svg"><path fill-rule="evenodd" clip-rule="evenodd" d="M22.094 43.996a7.746 7.746 0 011.756-4.09c-.608.06-1.226.094-1.85.094-9.926 0-18-8.076-18-18S12.074 4 22 4c9.824 0 17.82 7.914 17.984 17.698l3.956-.886C43.318 9.216 33.748 0 22 0 9.85 0 0 9.85 0 22s9.85 22 22 22l.094-.004zm9.196-25.632a10.012 10.012 0 00-5.654-5.656l.254-2.05a12.023 12.023 0 017.45 7.45l-2.05.256zM16 22a6 6 0 1012 0 6 6 0 00-12 0zm27.52 24c2.14 0 4.476-1.526 4.48-4.636V24l-15.996 3.584v13.04a4.991 4.991 0 00-.968-.094c-2.634 0-5.036 2.038-5.036 4.25 0 2.136 1.672 3.22 3.484 3.22 2.156 0 4.512-1.528 4.516-4.64v-10.9l12-2.458v8.624a4.997 4.997 0 00-.97-.094c-2.628 0-5.03 2.028-5.03 4.236C40 44.912 41.714 46 43.52 46zM22 26c2.206 0 4-1.794 4-4s-1.794-4-4-4-4 1.794-4 4 1.794 4 4 4zm-9.29-.362a10.015 10.015 0 005.654 5.654l-.254 2.05a12.015 12.015 0 01-7.45-7.448l2.05-.256zm-4.084.51l-2 .25a16.02 16.02 0 0010.976 10.976l.25-2a14.075 14.075 0 01-9.226-9.226zm17.52-17.522l.25-2a16 16 0 0110.976 10.976l-2 .25a14.063 14.063 0 00-9.226-9.226z" fill="#C86DD7"/></svg>