<svg width="46" height="50" fill="none" xmlns="http://www.w3.org/2000/svg"><path fill-rule="evenodd" clip-rule="evenodd" d="M46 29.448c0 3.394-1.888 7.675-6.014 9.435C36.104 45.1 30.74 50 23 50c-7.333 0-13.104-4.9-16.986-11.117C1.888 37.12 0 32.84 0 29.448c0-3.948 1.652-7.308 5.194-7.623C6.31 9.882 13.554 6.71 18.814 4.406c2.446-1.071 4.463-1.954 5.234-3.444.62 1.075.915 3.02-.038 4.396C25.683 5.27 28.503 2.85 29.29.45c1.446.704 1.98 3.033 1.258 4.527C31.587 4.779 34.74 2.765 36.417 0c1.318 3.006.05 6.852-1.357 9.175l-.023.002c3.442 3.283 5.33 7.94 5.769 12.646C44.369 22.14 46 25.51 46 29.448zM16.77 25c-1.322 0-2.395 1.292-2.395 2.885 0 1.592 1.073 2.884 2.396 2.884 1.322 0 2.396-1.292 2.396-2.884 0-1.593-1.074-2.885-2.396-2.885zm14.855 2.885c0 1.592-1.073 2.884-2.396 2.884-1.322 0-2.396-1.292-2.396-2.884 0-1.593 1.074-2.885 2.396-2.885 1.323 0 2.396 1.292 2.396 2.885zm-2.875 8.653s-1.466 4.527-5.75 4.527c-4.127 0-5.75-4.526-5.75-4.526h11.5zm11.017-10.78c.27-.12.838-.19 1.288.102 1.917 1.252 1.714 8.046-2.977 9.638a1.923 1.923 0 00-1.025.827c-3.29 5.465-7.751 9.829-14.053 9.829-4.037 0-9.361-2.035-14.051-9.829a1.916 1.916 0 00-1.026-.827c-4.692-1.592-4.895-8.386-2.978-9.638.45-.295 1.02-.221 1.288-.102 1.27.567 2.695-.375 2.695-1.758 0-1.142.124-2.277.318-3.396.905-3.604 2.927-2.977 5.887-2.058 4.057 1.259 9.876 3.064 16.998-4.729 2.848 1.368 4.366 5.695 5.004 10.702l.002-.03a1.914 1.914 0 002.63 1.269z" fill="#C86DD7"/></svg>