<svg height="512pt" viewBox="-68 0 512 512.001" width="512pt" xmlns="http://www.w3.org/2000/svg"><path d="M372.262 463.781L269.91 309.571c-20.168 8.519-42.238 13.386-65.375 13.792l115.992 174.754c5.77 8.696 15.457 13.883 25.91 13.883 6.094 0 12.02-1.793 17.13-5.184 14.261-9.468 18.163-28.773 8.695-43.035zM0 83.426v126.68a60.528 60.528 0 0131.047-8.536h31.047V91.96H31.047A60.517 60.517 0 010 83.427zm31.047 239.976A60.517 60.517 0 010 314.867V480.95c0 17.117 13.93 31.043 31.047 31.043 17.121 0 31.047-13.926 31.047-31.043V323.402zm0 0"/><path d="M201.395 293.531c80.925 0 146.765-65.84 146.765-146.765S282.32 0 201.395 0H31.047C13.926 0 0 13.93 0 31.047s13.93 31.047 31.047 31.047h170.348c46.687 0 84.671 37.984 84.671 84.672 0 46.691-37.984 84.672-84.671 84.672H31.047C13.926 231.438 0 245.368 0 262.483c0 17.121 13.93 31.047 31.047 31.047zm0 0"/></svg>