<svg width="48" height="48" fill="none" xmlns="http://www.w3.org/2000/svg"><path fill-rule="evenodd" clip-rule="evenodd" d="M13.774 0L8 9.942v2.196C8 14.27 6.132 16 4 16c-2.132 0-4-1.73-4-3.864V9.942L9.746 0h4.028zm6.104 0L18 9.942v2.196C18 14.27 16.132 16 14 16c-2.132 0-4-1.73-4-3.864V9.942L15.992 0h3.886zM44 16c2.132 0 4-1.73 4-3.864V9.942L38.254 0h-4.028L40 9.804V12c0 2.134 1.868 4 4 4zM28 9.8v2.196C28 14.128 26.132 16 24 16c-2.132 0-4-1.866-4-4V9.804L22.094 0h3.812L28 9.8zm9.996.204L32.008 0h-3.886L30 9.804V12c0 2.134 1.868 4 4 4 2.132 0 3.996-1.666 3.996-3.8v-2.196zM42 24v14H6V24h36zM2 20h44v28H2V20zm7 11.672a1 1 0 01-.708-1.706l3.672-3.672a1 1 0 011.414 1.414L9.706 31.38a.996.996 0 01-.706.292zm9.056-3.984l-8.02 8.02a1.004 1.004 0 01-1.414 0 1 1 0 010-1.414l8.02-8.02a1 1 0 011.414 1.414z" fill="#C86DD7"/></svg>