<svg width="50" height="46" fill="none" xmlns="http://www.w3.org/2000/svg"><path fill-rule="evenodd" clip-rule="evenodd" d="M9.27 28.777a18.742 18.742 0 01-2.862-9.959C6.408 8.424 14.802 0 25.158 0c10.357 0 18.75 8.424 18.75 18.818 0 3.747-1.104 7.23-2.985 10.164a35.693 35.693 0 00-3.88-1.712 14.582 14.582 0 002.699-8.452c0-8.07-6.544-14.636-14.584-14.636s-14.583 6.565-14.583 14.636c0 3.086.963 5.947 2.592 8.31a35.647 35.647 0 00-3.896 1.65zm19.753-9.447l4.21-4.27-5.787-.842-2.548-5.547-2.546 5.547-5.787.84 4.21 4.27-1.025 6.07 5.148-2.908 5.15 2.908-1.025-6.067zm7.275 21.516L41.16 33.9c-4.72-2.898-10.233-4.604-16.16-4.623-5.927.019-11.44 1.725-16.16 4.623l4.862 6.946c3.34-1.932 7.183-3.061 11.298-3.08 4.115.019 7.958 1.148 11.298 3.08zM50 39.727h-4.915L43.906 46a23.522 23.522 0 00-4.743-5.604l4.88-6.973c2.267 1.838 4.276 3.864 5.957 6.304zm-39.16.67l-4.882-6.974C3.69 35.261 1.681 37.287 0 39.727h4.917L6.096 46a23.517 23.517 0 014.744-5.604z" fill="#C86DD7"/></svg>