<svg width="48" height="48" fill="none" xmlns="http://www.w3.org/2000/svg"><path fill-rule="evenodd" clip-rule="evenodd" d="M9.874 2.882L6.73 0C2.558 4.226 0 9.752 0 15.832s2.558 11.604 6.728 15.832l3.144-2.882c-3.344-3.494-5.394-8.002-5.394-12.95 0-4.948 2.052-9.456 5.396-12.95zm21.984 20.152c1.696-2.006 2.708-4.5 2.708-7.202s-1.012-5.196-2.708-7.202l3.14-2.878c2.514 2.75 4.044 6.248 4.044 10.08s-1.532 7.328-4.044 10.082l-3.14-2.88zm-15.716 0l-3.14 2.878c-2.514-2.752-4.044-6.248-4.044-10.08s1.53-7.33 4.044-10.08l3.14 2.878c-1.696 2.006-2.708 4.5-2.708 7.202s1.012 5.196 2.708 7.202zM41.27 0l-3.142 2.882c3.344 3.494 5.394 8.002 5.394 12.95 0 4.948-2.05 9.456-5.394 12.95l3.144 2.882C45.442 27.434 48 21.91 48 15.832 48 9.754 45.442 4.226 41.27 0zM22.132 32.424L16.142 48h-4.226L22 21.464c-2.324-.826-4-3.024-4-5.632a6 6 0 0112 0c0 2.608-1.676 4.804-4 5.632L36.166 48h-4.308l-5.99-15.576a2.003 2.003 0 00-3.736 0z" fill="#C86DD7"/></svg>