<svg width="50" height="46" fill="none" xmlns="http://www.w3.org/2000/svg"><path fill-rule="evenodd" clip-rule="evenodd" d="M39.583 0c0 13.126-4.353 20.633-7.755 26.503-1.911 3.295-3.523 6.075-3.896 9.042H22.09c-.374-2.968-1.988-5.748-3.903-9.044-3.41-5.87-7.77-13.376-7.77-26.501h29.167zm-15.22 27.293c-3.929-6.817-5.489-15.54-5.512-23.111h-3.54c.428 9.718 4.146 17.423 9.053 23.11zm-2.339 10.343h5.97c.4 2.482 1.176 5.476 5.34 5.476V46H16.668v-2.888c4.044 0 4.935-2.994 5.356-5.476zM42.745 34.3c-2.92-1.325-5.435-.397-6.988.613 1.553-1.012 3.34-3.061 3.323-6.28-4.11 1.654-4.733 3.816-5.229 5.537-.155.539-.298 1.035-.531 1.458-.656 1.194-2.098.573-2.098.573l-.444.736c.76.404 2.06.667 3.575.667 2.723 0 6.144-.855 8.392-3.304zm-.119-4.723c.798-1.468 2.332-3.483 5.21-3.686-1.337 5.31-7.253 6.724-7.908 6.81l-.014-.845s1.012.02 1.02-.872c.006-.435-.092-.89-.199-1.383-.34-1.576-.767-3.556 1.787-6.627 1.383 2.542.902 5.135.104 6.603zm7.369-11.778c-2.44.89-3.25 3.08-3.58 4.548.33-1.468.086-3.896-1.739-5.75-1.451 3.292-.593 4.898.09 6.177.214.4.411.769.514 1.147.213.776-.677 1.267-.677 1.267l.605.374c.127-.06 4.968-2.785 4.787-7.763zm-2.446-3.047c-.09-1.352.148-3.49 2.03-4.882.854 3.225-.198 4.808-.983 5.99-.216.325-.412.62-.543.91-.298.659-.352.924-.352.924l-.591.04s.33-.761-.048-1.376c-.185-.3-.449-.566-.735-.857-.914-.93-2.063-2.097-1.645-5.311 2.044 1.135 2.78 3.212 2.867 4.562zm-1.931-10.57s-.569 2.058-.094 3.622c.508 1.669 1.819 2.846 1.819 2.846s.708-1.825.206-3.624c-.462-1.656-1.931-2.843-1.931-2.843zM18.778 36.2l.444.736c-.763.404-2.06.667-3.575.669-2.723 0-6.146-.857-8.392-3.306 2.921-1.325 5.436-.4 6.988.613-1.552-1.01-3.34-3.061-3.323-6.28 4.11 1.654 4.733 3.816 5.229 5.537.155.539.298 1.035.531 1.458.659 1.194 2.098.573 2.098.573zm-8.708-3.502l.014-.845s-1.012.02-1.02-.872c-.005-.435.093-.888.2-1.38.34-1.576.767-3.556-1.788-6.63-1.383 2.542-.902 5.137-.104 6.603-.798-1.468-2.334-3.484-5.21-3.687 1.337 5.314 7.254 6.727 7.908 6.81zm-4.673-7.51l-.604.373c-.13-.06-4.971-2.785-4.788-7.763 2.442.89 3.25 3.08 3.58 4.548-.332-1.468-.086-3.896 1.739-5.75 1.452 3.292.593 4.898-.09 6.177-.214.4-.411.769-.514 1.147-.213.774.677 1.267.677 1.267zm-3.45-8.417c.298.659.352.924.352.924l.592.04s-.332-.761.047-1.376c.185-.299.448-.566.734-.857.914-.93 2.063-2.098 1.646-5.31-2.048 1.132-2.782 3.207-2.87 4.56.088-1.354-.15-3.493-2.028-4.883-.855 3.225.197 4.808.984 5.992.216.325.412.62.543.91zm.708-6.122S1.95 8.824 2.45 7.025c.46-1.655 1.93-2.843 1.93-2.843s.569 2.057.094 3.621c-.508 1.669-1.819 2.846-1.819 2.846z" fill="#C86DD7"/></svg>